#!OML:ASF E:\pregnant2\Project 1\Capture day 1\Session 1\pregnant2.ASF
:FULLY-SPECIFIED
:DEGREES
1513
root -4.56065 3.82714 19.7914 23.3313 -1.92724 -2.34927
lowerback -0.222853 -0.284099 2.74123
upperback -4.04132 -0.197252 3.84667
thorax -4.04119 -0.121342 2.44507
lowerneck -21.3676 -0.31423 -0.562983
upperneck 34.5262 0.944844 -3.20052
head 15.8619 -0.165616 -1.09607
rclavicle -6.55989e-015 2.38542e-015
rhumerus 45.9004 21.9875 -33.6319
rradius 23.4225
rwrist 22.8508
rhand 1.29699 -7.96463
rfingers 7.12502
rthumb 26.8321 -396.081
lclavicle -6.55989e-015 2.38542e-015
lhumerus 48.6957 -22.6895 38.6479
lradius 22.6959
lwrist -15.4239
lhand -2.60819 24.419
lfingers 7.12502
lthumb 23.0899 413.056
rfemur -122.997 -1.08786 47.9044
rtibia 27.044
rfoot -5.39967 4.72145
rtoes 6.8009
lfemur -116.962 9.44928 -7.35594
ltibia 19.151
lfoot 3.57422 38.2356
ltoes -9.26664
1514
root -4.56221 3.82558 19.792 23.3001 -1.93885 -2.34052
lowerback -0.23353 -0.298131 2.72026
upperback -4.04517 -0.215742 3.88247
thorax -4.03864 -0.129184 2.49461
lowerneck -21.3662 -0.305439 -0.560807
upperneck 34.5262 0.970051 -3.23531
head 15.8626 -0.160115 -1.10656
rclavicle -2.38542e-015 3.02153e-014
rhumerus 45.9211 21.9729 -33.5637
rradius 23.4238
rwrist 22.8466
rhand 1.2889 -7.95762
rfingers 7.12502
rthumb 26.8243 -396.075
lclavicle -2.38542e-015 3.02153e-014
lhumerus 48.6751 -22.68 38.6472
lradius 22.6949
lwrist -15.4141
lhand -2.62908 24.4347
lfingers 7.12502
lthumb 23.0699 413.074
rfemur -122.984 -1.09016 47.8925
rtibia 27.0729
rfoot -5.45042 4.66265
rtoes 6.61408
lfemur -116.974 9.44108 -7.35494
ltibia 19.2611
lfoot 3.9581 38.0314
ltoes -8.65788
1515
root -4.56367 3.82431 19.7921 23.2715 -1.94629 -2.33896
lowerback -0.245975 -0.31173 2.70947
upperback -4.04876 -0.233568 3.91772
thorax -4.03487 -0.137055 2.53784
lowerneck -21.3614 -0.297663 -0.555245
upperneck 34.5343 0.991371 -3.26717
head 15.8664 -0.155383 -1.11729
rclavicle -1.13307e-014 1.11319e-014
rhumerus 45.9362 21.9531 -33.5105
rradius 23.4277
rwrist 22.8301
rhand 1.26892 -7.95387
rfingers 7.12502
rthumb 26.8052 -396.074
lclavicle -1.13307e-014 1.11319e-014
lhumerus 48.6625 -22.6827 38.6343
lradius 22.7006
lwrist -15.3762
lhand -2.65643 24.4493
lfingers 7.12502
lthumb 23.0437 413.092
rfemur -122.97 -1.09224 47.889
rtibia 27.0998
rfoot -5.50677 4.60119
rtoes 6.39853
lfemur -116.976 9.42256 -7.34468
ltibia 19.3724
lfoot 4.47644 37.8608
ltoes -7.92946
1516
root -4.56492 3.82342 19.7922 23.2429 -1.95111 -2.34137
lowerback -0.259045 -0.324685 2.70895
upperback -4.05023 -0.250577 3.94938
thorax -4.02858 -0.144937 2.5715
lowerneck -21.3562 -0.291185 -0.546332
upperneck 34.5513 1.00718 -3.2927
head 15.8742 -0.151625 -1.12714
rclavicle 2.5842e-015 -3.4191e-014
rhumerus 45.944 21.9247 -33.4761
rradius 23.4339
rwrist 22.8103
rhand 1.23813 -7.94911
rfingers 7.12502
rthumb 26.7757 -396.074
lclavicle 2.5842e-015 -3.4191e-014
lhumerus 48.6636 -22.7041 38.5925
lradius 22.7174
lwrist -15.2955
lhand -2.68482 24.4618
lfingers 7.12502
lthumb 23.0164 413.107
rfemur -122.953 -1.09623 47.8904
rtibia 27.1228
rfoot -5.55959 4.54893
rtoes 6.21086
lfemur -116.972 9.40604 -7.33035
ltibia 19.479
lfoot 5.04551 37.7357
ltoes -7.00826
1517
root -4.56598 3.82283 19.7921 23.2137 -1.95534 -2.34696
lowerback -0.274446 -0.337381 2.71354
upperback -4.05067 -0.267369 3.9795
thorax -4.01994 -0.152911 2.60066
lowerneck -21.3454 -0.286529 -0.534183
upperneck 34.5758 1.01771 -3.31492
head 15.8843 -0.149159 -1.13728
rclavicle -5.96354e-016 -3.33958e-014
rhumerus 45.9514 21.9039 -33.4413
rradius 23.4461
rwrist 22.7725
rhand 1.208 -7.95575
rfingers 7.12502
rthumb 26.7469 -396.085
lclavicle -5.96354e-016 -3.33958e-014
lhumerus 48.6587 -22.722 38.5689
lradius 22.7376
lwrist -15.2227
lhand -2.71496 24.463
lfingers 7.12502
lthumb 22.9875 413.112
rfemur -122.93 -1.10116 47.8943
rtibia 27.1397
rfoot -5.60328 4.51149
rtoes 6.06242
lfemur -116.961 9.39467 -7.31395
ltibia 19.5761
lfoot 5.63618 37.6639
ltoes -5.85543
1518
root -4.56656 3.82245 19.792 23.1823 -1.95958 -2.35187
lowerback -0.287565 -0.34944 2.72499
upperback -4.05121 -0.283151 4.00638
thorax -4.01275 -0.160686 2.62258
lowerneck -21.3309 -0.28249 -0.524266
upperneck 34.6099 1.02542 -3.32937
head 15.8979 -0.147074 -1.14442
rclavicle -5.96354e-016 -3.57812e-014
rhumerus 45.9528 21.8866 -33.4124
rradius 23.4643
rwrist 22.734
rhand 1.17902 -7.96585
rfingers 7.12502
rthumb 26.7192 -396.099
lclavicle -5.96354e-016 -3.57812e-014
lhumerus 48.6468 -22.7333 38.5746
lradius 22.7558
lwrist -15.1725
lhand -2.73585 24.4483
lfingers 7.12502
lthumb 22.9675 413.1
rfemur -122.904 -1.10974 47.8965
rtibia 27.1511
rfoot -5.63016 4.48755
rtoes 5.96997
lfemur -116.94 9.38652 -7.29955
ltibia 19.661
lfoot 6.21536 37.6552
ltoes -4.57807
1519
root -4.56687 3.82214 19.7918 23.1487 -1.96726 -2.35627
lowerback -0.30275 -0.361304 2.73555
upperback -4.04923 -0.298962 4.0326
thorax -4.00173 -0.168447 2.64424
lowerneck -21.3216 -0.275836 -0.518148
upperneck 34.6569 1.03603 -3.33595
head 15.9192 -0.14329 -1.14725
rclavicle -3.97569e-015 -1.59028e-015
rhumerus 45.9595 21.8759 -33.3798
rradius 23.4852
rwrist 22.6919
rhand 1.16834 -7.97389
rfingers 7.12502
rthumb 26.709 -396.109
lclavicle -3.97569e-015 -1.59028e-015
lhumerus 48.6309 -22.7384 38.6003
lradius 22.7685
lwrist -15.142
lhand -2.74824 24.421
lfingers 7.12502
lthumb 22.9556 413.074
rfemur -122.87 -1.11808 47.8961
rtibia 27.1541
rfoot -5.63564 4.48285
rtoes 5.96612
lfemur -116.911 9.38609 -7.28858
ltibia 19.7357
lfoot 6.76016 37.7096
ltoes -3.18381
1520
root -4.5666 3.82179 19.7912 23.1139 -1.97804 -2.35812
lowerback -0.312131 -0.374032 2.74321
upperback -4.05044 -0.315438 4.06142
thorax -3.9973 -0.176413 2.67038
lowerneck -21.3138 -0.264929 -0.520326
upperneck 34.7184 1.0548 -3.33723
head 15.9482 -0.136615 -1.14509
rclavicle 7.95139e-015 -3.4191e-014
rhumerus 45.9749 21.8864 -33.3266
rradius 23.5126
rwrist 22.6412
rhand 1.16737 -7.98066
rfingers 7.12502
rthumb 26.708 -396.116
lclavicle 7.95139e-015 -3.4191e-014
lhumerus 48.5993 -22.7344 38.665
lradius 22.7718
lwrist -15.1446
lhand -2.74824 24.3788
lfingers 7.12502
lthumb 22.9556 413.032
rfemur -122.832 -1.12736 47.8902
rtibia 27.1478
rfoot -5.62814 4.47823
rtoes 5.98891
lfemur -116.877 9.39135 -7.28262
ltibia 19.8032
lfoot 7.25157 37.8271
ltoes -1.81297
1521
root -4.5662 3.82124 19.7908 23.0786 -1.99822 -2.35861
lowerback -0.322744 -0.384322 2.74465
upperback -4.05101 -0.328896 4.08974
thorax -3.99151 -0.182663 2.69936
lowerneck -21.3079 -0.251447 -0.526643
upperneck 34.7889 1.07834 -3.33563
head 15.9822 -0.128201 -1.14022
rclavicle 1.23246e-014 -1.27222e-014
rhumerus 45.9968 21.9076 -33.2607
rradius 23.5423
rwrist 22.5857
rhand 1.18268 -7.98307
rfingers 7.12502
rthumb 26.7227 -396.116
lclavicle 1.23246e-014 -1.27222e-014
lhumerus 48.5681 -22.7343 38.7369
lradius 22.7711
lwrist -15.1619
lhand -2.73022 24.335
lfingers 7.12502
lthumb 22.9729 412.986
rfemur -122.784 -1.12944 47.8791
rtibia 27.1302
rfoot -5.60554 4.47721
rtoes 6.03676
lfemur -116.84 9.4103 -7.28266
ltibia 19.87
lfoot 7.65822 38.0102
ltoes -0.460893
1522
root -4.56554 3.82041 19.7903 23.0439 -2.02817 -2.35534
lowerback -0.336758 -0.391885 2.74034
upperback -4.05041 -0.33914 4.11578
thorax -3.98261 -0.187144 2.72904
lowerneck -21.3011 -0.237898 -0.529728
upperneck 34.8621 1.10295 -3.33969
head 16.0175 -0.119772 -1.13821
rclavicle 1.05356e-014 -3.89618e-014
rhumerus 46.0244 21.9359 -33.1832
rradius 23.5732
rwrist 22.5269
rhand 1.21198 -7.97389
rfingers 7.12502
rthumb 26.7507 -396.103
lclavicle 1.05356e-014 -3.89618e-014
lhumerus 48.5398 -22.7383 38.8116
lradius 22.7684
lwrist -15.194
lhand -2.69445 24.2908
lfingers 7.12502
lthumb 23.0072 412.938
rfemur -122.732 -1.12441 47.8608
rtibia 27.1035
rfoot -5.57202 4.48178
rtoes 6.09681
lfemur -116.802 9.4411 -7.29069
ltibia 19.9389
lfoot 7.96598 38.2574
ltoes 0.837315
1523
root -4.56485 3.81932 19.7899 23.0108 -2.06879 -2.34989
lowerback -0.355131 -0.395332 2.73006
upperback -4.04919 -0.344362 4.13879
thorax -3.97066 -0.188962 2.75868
lowerneck -21.29 -0.224869 -0.52669
upperneck 34.9344 1.12711 -3.3512
head 16.0515 -0.111759 -1.14055
rclavicle 2.78299e-015 7.95139e-016
rhumerus 46.0535 21.9655 -33.1045
rradius 23.6015
rwrist 22.4696
rhand 1.25726 -7.95964
rfingers 7.12502
rthumb 26.7941 -396.082
lclavicle 2.78299e-015 7.95139e-016
lhumerus 48.5174 -22.7542 38.8772
lradius 22.7719
lwrist -15.2329
lhand -2.64523 24.2521
lfingers 7.12502
lthumb 23.0544 412.893
rfemur -122.677 -1.1099 47.8369
rtibia 27.0756
rfoot -5.53306 4.49242
rtoes 6.14831
lfemur -116.76 9.48601 -7.30466
ltibia 20.0063
lfoot 8.16978 38.565
ltoes 2.14885
